<?xml version="1.0" encoding="UTF-8"?>
<svg id="Camada_2" data-name="Camada 2" xmlns="http://www.w3.org/2000/svg" viewBox="0 0 496.27 110.77">
  <defs>
    <style>
      .cls-1 {
        font-family: Montserrat-Bold, Montserrat;
        font-size: 38.15px;
        font-weight: 700;
        letter-spacing: .65em;
      }

      .cls-1, .cls-2 {
        fill: #ffd231;
      }
    </style>
  </defs>
  <g id="Camada_1" data-name="Camada 1">
    <g id="NEOOMA_VETORIZADO" data-name="NEOOMA VETORIZADO">
      <g>
        <path class="cls-2" d="M168.5.54c7.41-.14,14.78,2.04,20.62,6.61,26.12,20.44,7.16,69.66-33.01,58.51-27.81-7.73-32.13-47.71-7.36-61.71h0c4.11-2.07,8.63-3.19,13.22-3.28l6.53-.13ZM163.66,14.7c-22.84,2.72-20.27,39.73,5.52,36.72,22.7-2.65,19.83-39.74-5.52-36.72Z"/>
        <path class="cls-2" d="M3.11.52l14.44.12c10.6,14.02,26.67,35.49,29.6,39.23.88,1.13,21.63,27.63,22,28.42h-14.54L19.75,27.04v41.08H3.11V.52Z"/>
        <path class="cls-2" d="M233.35.67c49.47-6.45,53.21,63.01,10.7,67.38-46.44,4.78-50.66-62.18-10.7-67.38ZM236.98,15.74c-22.84,2.72-20.27,39.73,5.52,36.72,22.7-2.65,19.83-39.74-5.52-36.72Z"/>
        <polygon class="cls-2" points="128.43 0 128.43 12.48 90.47 13 90.47 27.56 123.75 27.04 123.75 39.52 91.25 39.52 90.47 40.3 90.47 55.12 129.47 55.12 129.47 67.6 73.83 68.12 73.83 .52 128.43 0"/>
        <path class="cls-2" d="M425.34,68.12L449.84.58l16.35-.1,25.19,67.64h-16.64l-4.76-13.96-22.57-.12-5.43,14.08h-16.64ZM465.9,44.2l-7.79-21.32-7.29,21.32h15.08Z"/>
        <path class="cls-2" d="M421.6.34c.59,0,.07,3.64.07,6.46l-34.02,41.54-18.98-22.87v42.64h-15.6V.52h15.86c1.48,0,17.16,22.85,18.72,22.87S405.39.52,406.88.52c2.07,0,13.73-.18,14.72-.18Z"/>
        <path class="cls-2" d="M294.01.08s18.38,23.7,18.76,23.32c2.49-2.49,17.74-22.88,19.23-22.88h15.34v67.6h-15.6V25.48l-18.9,22.31-33.87-41.05-.27-6.66h15.3Z"/>
        <polygon class="cls-2" points="69.15 0 69.15 66.21 52.51 45.34 52.51 .78 53.29 0 69.15 0"/>
        <polygon class="cls-2" points="422.22 68.12 406.62 68.12 406.62 27.3 422.22 8.84 422.22 68.12"/>
        <polygon class="cls-2" points="294.31 68.12 278.71 68.12 278.71 8.84 294.31 27.3 294.31 68.12"/>
      </g>
      <text class="cls-1" transform="translate(0 100.62)"><tspan x="0" y="0">ENGENHARIA</tspan></text>
    </g>
  </g>
</svg>